<svg xmlns="http://www.w3.org/2000/svg" xmlns:xlink="http://www.w3.org/1999/xlink" width="278" height="82" viewBox="0 0 278 82"><defs><clipPath id="a"><rect width="278" height="82" transform="translate(-0.142)" fill="#fff"/></clipPath></defs><g transform="translate(0.142)" clip-path="url(#a)"><path d="M79.577,28.682a12.105,12.105,0,0,1-.236,2.7H55.562a7.378,7.378,0,0,0,7.414,5.582,8.782,8.782,0,0,0,3.957-.865,5.936,5.936,0,0,0,2.561-2.189H78.93a15.332,15.332,0,0,1-6.066,7.771,17.518,17.518,0,0,1-10.07,2.954,16.591,16.591,0,0,1-12-4.618,15.347,15.347,0,0,1-3.621-5.233A15.176,15.176,0,0,1,46,28.555a15.132,15.132,0,0,1,1.168-6.229A15.3,15.3,0,0,1,50.8,17.1a17.883,17.883,0,0,1,23.941,0A15.427,15.427,0,0,1,78.4,22.383a15.254,15.254,0,0,1,1.175,6.3Zm-16.749-8.6a7.1,7.1,0,0,0-4.509,1.47,7.979,7.979,0,0,0-2.7,3.992H70a7.166,7.166,0,0,0-2.618-3.969,7.327,7.327,0,0,0-4.554-1.493Z" transform="translate(45.169 12.297)" fill="#c79c6b"/><path d="M87.4,12.869h9.955L84.723,43.535H75.59L62.912,12.869H73.09l7.2,19.535Z" transform="translate(61.807 12.66)" fill="#c79c6b"/><path d="M82.113,43.535V12.869h8.9V43.535Z" transform="translate(80.696 12.66)" fill="#1a1a23"/><path d="M120.385,12.869V43.535h-8.9v-22.2H99.052v22.2h-8.9V12.869Z" transform="translate(88.607 12.66)" fill="#1a1a23"/><path d="M128.142,49.815l-7.328-11.424h-2.966V49.815h-8.9V6.487h8.9V30.313h3.095l6.963-11.165h10.649L128.263,34.365l10.71,15.449Z" transform="translate(107.097 6.381)" fill="#1a1a23"/><path d="M151.829,35.545h3.458v7.984H144V40.661a10.86,10.86,0,0,1-8.627,3.613,11.133,11.133,0,0,1-7.786-2.868,9.819,9.819,0,0,1-2.307-3.246,9.678,9.678,0,0,1,0-7.767,9.821,9.821,0,0,1,2.307-3.246,11.109,11.109,0,0,1,7.812-2.854h7.556V20.92H126.715V12.869h25.114Zm-14.075,2a6.352,6.352,0,0,0,3.747-1.011,3.142,3.142,0,0,0,1.061-1.15,3.1,3.1,0,0,0,.369-1.512V30.674h-5.178a4.589,4.589,0,0,0-2.958.952,3.03,3.03,0,0,0-.9,1.085,2.984,2.984,0,0,0-.307,1.37,3.061,3.061,0,0,0,1.208,2.435,4.478,4.478,0,0,0,2.958,1Z" transform="translate(122.362 12.66)" fill="#1a1a23"/><path d="M13.143,5.84a34.7,34.7,0,0,1,3.923-1.59l2.163,6.228a27.271,27.271,0,0,0-3.161,1.3Z" transform="translate(12.847 4.181)" fill="#c79c6b" opacity="0.2"/><path d="M18.1,10.621A26.634,26.634,0,0,1,21.467,10l-.843-6.534a34.66,34.66,0,0,0-4.172.778Z" transform="translate(16.103 3.405)" fill="#c79c6b" opacity="0.2"/><path d="M19.927,3.371l.317,6.58c.445,0,.9-.033,1.348-.033.782,0,1.55.04,2.312.1l.539-6.56c-.937-.073-1.887-.126-2.851-.126A15.288,15.288,0,0,0,19.927,3.371Z" transform="translate(19.521 3.269)" fill="#c79c6b" opacity="0.3"/><path d="M14.207,13.267a29.107,29.107,0,0,1,2.838-1.9L13.675,5.7a34.464,34.464,0,0,0-3.5,2.349Z" transform="translate(9.923 5.609)" fill="#c79c6b" opacity="0.2"/><path d="M10.082,21.43a27.014,27.014,0,0,1,.573-3.327L4.177,16.619a33.172,33.172,0,0,0-.708,4.125Z" transform="translate(3.332 16.349)" fill="#c79c6b" opacity="0.2"/><path d="M11.4,17.087a27.519,27.519,0,0,1,1.854-2.841l-5.392-3.9a34,34,0,0,0-2.292,3.52Z" transform="translate(5.399 10.179)" fill="#c79c6b" opacity="0.2"/><path d="M23.041,10.039a27.54,27.54,0,0,1,3.37.745l1.84-6.308a35.5,35.5,0,0,0-4.138-.925Z" transform="translate(22.585 3.494)" fill="#c79c6b" opacity="0.4"/><path d="M10.549,19.231a26.557,26.557,0,0,1,1.233-3.147L5.716,13.329a34.347,34.347,0,0,0-1.55,3.906Z" transform="translate(4.017 13.112)" fill="#c79c6b" opacity="0.2"/><path d="M33.726,16.424a27.088,27.088,0,0,1,1.119,3.2l6.423-1.776a33.6,33.6,0,0,0-1.388-3.992Z" transform="translate(33.095 13.63)" fill="#c79c6b" opacity="0.9"/><path d="M41.092,17.193l-6.545,1.264a27.231,27.231,0,0,1,.445,3.327l6.653-.466a33.671,33.671,0,0,0-.553-4.125Z" transform="translate(33.904 16.913)" fill="#c79c6b"/><path d="M10.164,23.584c-.088-.878-.135-1.77-.135-2.662v-.665l-6.666-.173v.872c0,1.118.054,2.216.162,3.327Z" transform="translate(3.227 19.757)" fill="#c79c6b" opacity="0.2"/><path d="M25.778,10.6A27.2,27.2,0,0,1,28.892,12L32.02,6.184a34.085,34.085,0,0,0-3.862-1.737Z" transform="translate(25.277 4.375)" fill="#c79c6b" opacity="0.5"/><path d="M32.366,14.536a26.362,26.362,0,0,1,1.746,2.9l5.931-3.021a34.82,34.82,0,0,0-2.17-3.6Z" transform="translate(31.758 10.641)" fill="#c79c6b" opacity="0.8"/><path d="M28.314,11.546a27.838,27.838,0,0,1,2.77,2L35.33,8.466A33.7,33.7,0,0,0,31.9,6.031Z" transform="translate(27.771 5.932)" fill="#c79c6b" opacity="0.6"/><path d="M35.183,8.164l-4.644,4.731a28.1,28.1,0,0,1,2.312,2.5l5.19-4.139a35.594,35.594,0,0,0-2.858-3.087Z" transform="translate(29.961 8.031)" fill="#c79c6b" opacity="0.7"/><path d="M7.6,10.756l5.042,4.3a29.088,29.088,0,0,1,2.386-2.422L10.56,7.761A32.854,32.854,0,0,0,7.6,10.756Z" transform="translate(7.396 7.635)" fill="#c79c6b" opacity="0.2"/><path d="M38.734,32.309,33.295,28.5v.04a26.033,26.033,0,0,1-2.143,2.622L36.085,35.6a34.576,34.576,0,0,0,2.649-3.293Z" transform="translate(30.563 28.039)" fill="#c79c6b"/><path d="M31.672,30.616a29.1,29.1,0,0,1-2.635,2.156l3.93,5.323a34.794,34.794,0,0,0,3.262-2.661Z" transform="translate(28.483 30.118)" fill="#c79c6b"/><path d="M29.6,32.316l-.735.419c-.674.393-1.415.758-2.143,1.091l-.135.06,2.77,5.988a33.188,33.188,0,0,0,3.741-2Z" transform="translate(26.078 31.79)" fill="#c79c6b"/><path d="M34.958,23.4a27.239,27.239,0,0,1-.923,3.247l6.3,2.156a35.019,35.019,0,0,0,1.146-4.032Z" transform="translate(33.4 23.024)" fill="#c79c6b"/><path d="M34.924,20.621a26.476,26.476,0,0,1-.236,3.367l6.612.858a34.123,34.123,0,0,0,.3-4.172Z" transform="translate(34.043 20.285)" fill="#c79c6b"/><path d="M34.389,26.068c0,.053-.047.106-.074.166a27.941,27.941,0,0,1-1.463,2.775l5.736,3.367a32.5,32.5,0,0,0,1.935-3.719Z" transform="translate(32.237 25.644)" fill="#c79c6b"/><path d="M27.2,33.534l-.317.107H26.8l-.2.06c-.829.28-1.665.512-2.528.712h-.148L25.4,40.833a34.445,34.445,0,0,0,4.044-1.178Z" transform="translate(23.446 32.988)" fill="#c79c6b"/><path d="M20.013,34.428l-.222-.06-.276-.08c-.357-.1-.708-.206-1.058-.319l-.344-.113c-.452-.153-.9-.319-1.348-.492l-2.487,6.108A34.719,34.719,0,0,0,18.322,40.8Z" transform="translate(13.964 32.82)" fill="#c79c6b" opacity="0.8"/><path d="M13.852,30.815a28.957,28.957,0,0,1-2.056-2.7l-5.567,3.62A35.413,35.413,0,0,0,8.77,35.06Z" transform="translate(6.046 27.656)" fill="#c79c6b" opacity="0.5"/><path d="M11.621,37.7l4.111-5.177a30.249,30.249,0,0,1-2.568-2.236L8.446,34.948A33.83,33.83,0,0,0,11.621,37.7Z" transform="translate(8.227 29.798)" fill="#c79c6b" opacity="0.6"/><path d="M24.494,34.2h-.62c-.438.06-.89.1-1.348.133h-.081c-.451.033-.91.053-1.348.06l.148,6.58a33.936,33.936,0,0,0,4.219-.339Z" transform="translate(20.672 33.648)" fill="#c79c6b"/><path d="M12.251,28.676a27.634,27.634,0,0,1-1.456-3.054L4.6,28.064A33.14,33.14,0,0,0,6.434,31.87Z" transform="translate(4.444 25.205)" fill="#c79c6b" opacity="0.4"/><path d="M22.245,34.517h-.532a28.775,28.775,0,0,1-2.865-.359l-1.186,6.474a34.87,34.87,0,0,0,4.206.5Z" transform="translate(17.292 33.602)" fill="#c79c6b" opacity="0.9"/><path d="M17.817,33.751l-.114-.06-.081-.04-.081-.04a28.959,28.959,0,0,1-2.7-1.55l-3.68,5.489a34.178,34.178,0,0,0,3.673,2.089Z" transform="translate(10.901 31.54)" fill="#c79c6b" opacity="0.7"/><path d="M11,26.222a26.485,26.485,0,0,1-.8-3.28L3.635,24.093a34.218,34.218,0,0,0,.991,4.072Z" transform="translate(3.494 22.569)" fill="#c79c6b" opacity="0.3"/><path d="M11.267,4.019A41.374,41.374,0,0,1,21.141.486L22.61,6.92a34.407,34.407,0,0,0-8.3,2.967Z" transform="translate(11.002 0.478)" fill="#c79c6b" opacity="0.6"/><path d="M17.118.639l1.146,6.494a35.4,35.4,0,0,1,6.066-.539c1.153,0,2.292.06,3.417.166L28.374.206Q26.352.02,24.33.013A41.888,41.888,0,0,0,17.118.639Z" transform="translate(16.758 0.013)" fill="#c79c6b" opacity="0.5"/><path d="M10.913,13.662a34.278,34.278,0,0,1,7.057-5.25l-3.33-5.735A41.486,41.486,0,0,0,6.263,8.931Z" transform="translate(6.079 2.633)" fill="#c79c6b" opacity="0.7"/><path d="M6.94,22.6a33.539,33.539,0,0,1,2.851-8.25L3.8,11.464a40,40,0,0,0-3.37,9.807Z" transform="translate(0.34 11.278)" fill="#c79c6b" opacity="0.9"/><path d="M.175,27.62l6.646-.612c-.108-1.1-.168-2.209-.168-3.327a33.822,33.822,0,0,1,.431-5.389L.512,17.273A40.079,40.079,0,0,0,0,23.674Q0,25.67.175,27.62Z" transform="translate(-0.081 16.992)" fill="#c79c6b"/><path d="M2.531,14.853l5.85,3.174a34.158,34.158,0,0,1,5.19-7.079L8.7,6.443a40.754,40.754,0,0,0-6.167,8.41Z" transform="translate(2.409 6.339)" fill="#c79c6b" opacity="0.8"/><path d="M28.164,7.9a34.329,34.329,0,0,1,7.448,4.657l4.26-5.037a41.294,41.294,0,0,0-8.843-5.576Z" transform="translate(27.624 1.914)" fill="#c79c6b" opacity="0.3"/><path d="M37.688,17.234a33.977,33.977,0,0,1,.964,7.984v.665l6.679.107v-.779a40.307,40.307,0,0,0-1.139-9.521Z" transform="translate(36.993 15.435)" fill="#c79c6b" opacity="0.3"/><path d="M41.49,10.055,35.74,13.382a33.915,33.915,0,0,1,3.492,7.984l6.417-1.836a40.249,40.249,0,0,0-4.159-9.475Z" transform="translate(35.077 9.892)" fill="#c79c6b" opacity="0.2"/><path d="M36.985,5.33l-4.516,4.864A34.386,34.386,0,0,1,38.2,16.847l5.581-3.62a41.146,41.146,0,0,0-6.794-7.9Z" transform="translate(31.859 5.243)" fill="#c79c6b" opacity="0.2"/><path d="M23.21,6.722A34.633,34.633,0,0,1,31.723,9.03l2.568-6.081A41.3,41.3,0,0,0,24.18.2Z" transform="translate(22.751 0.198)" fill="#c79c6b" opacity="0.4"/><path d="M42.9,35.054,37.64,31a34.521,34.521,0,0,1-6.255,6.168l4.1,5.2A41.29,41.29,0,0,0,42.9,35.054Z" transform="translate(30.793 30.497)" fill="#c79c6b" opacity="0.6"/><path d="M34.668,34.54a34.293,34.293,0,0,1-7.8,4.085l2.359,6.161a41.081,41.081,0,0,0,9.281-4.85Z" transform="translate(26.351 33.978)" fill="#c79c6b" opacity="0.7"/><path d="M38.966,21.556a33.393,33.393,0,0,1-1.658,8.563l6.349,2.036a40.128,40.128,0,0,0,1.975-10.18Z" transform="translate(36.619 21.206)" fill="#c79c6b" opacity="0.4"/><path d="M30.483,36.827a34.6,34.6,0,0,1-8.675,1.623l.418,6.58A41.864,41.864,0,0,0,32.539,43.1Z" transform="translate(21.372 36.228)" fill="#c79c6b" opacity="0.8"/><path d="M39.122,26.547a33.691,33.691,0,0,1-4.152,7.692l5.46,3.8a40.413,40.413,0,0,0,4.927-9.149Z" transform="translate(34.319 26.115)" fill="#c79c6b" opacity="0.5"/><path d="M9.143,31.295a33.406,33.406,0,0,1-2.332-8.4l-6.605.931a39.935,39.935,0,0,0,2.77,9.98Z" transform="translate(0.12 22.519)" fill="#c79c6b"/><path d="M13.372,43.2l3.673-5.523a34.53,34.53,0,0,1-6.74-5.655L5.378,36.463a40.887,40.887,0,0,0,7.994,6.74Z" transform="translate(5.209 31.504)" fill="#c79c6b"/><path d="M12.742,35.14a33.938,33.938,0,0,1-4.718-7.359L1.958,30.6a40.831,40.831,0,0,0,5.635,8.736Z" transform="translate(1.845 27.329)" fill="#c79c6b"/><path d="M21.638,38.721a34.347,34.347,0,0,1-8.088-3.453l-3.37,5.669a41.085,41.085,0,0,0,9.638,4.119Z" transform="translate(9.933 34.694)" fill="#c79c6b"/><path d="M26.3,44.745l-.094-6.594h-.634a34.961,34.961,0,0,1-8.149-.965L15.877,43.6a41.944,41.944,0,0,0,9.7,1.138Z" transform="translate(15.537 36.581)" fill="#c79c6b" opacity="0.9"/><path d="M16.533,7.529c.62-.193,1.247-.366,1.887-.512l1.55,6.4c-.485.113-.964.246-1.436.393Z" transform="translate(16.183 6.903)" fill="#c79c6b"/><path d="M17.707,14.243c.445-.2.9-.393,1.348-.566L16.71,7.516c-.613.226-1.213.472-1.8.745Z" transform="translate(14.586 7.394)" fill="#c79c6b"/><path d="M16.9,14.774c.425-.259.856-.5,1.294-.725L15.1,8.214c-.58.3-1.153.619-1.705.958Z" transform="translate(13.091 8.08)" fill="#c79c6b"/><path d="M19.414,13.482c.485-.086.97-.16,1.469-.22l-.735-6.54c-.674.073-1.3.166-1.934.286Z" transform="translate(17.836 6.612)" fill="#c79c6b"/><path d="M19.931,6.681l.4,6.574c.418,0,.842-.04,1.267-.04h.256l.088-6.58H21.6C21.009,6.628,20.477,6.648,19.931,6.681Z" transform="translate(19.525 6.526)" fill="#c79c6b"/><path d="M16.14,15.387a10.554,10.554,0,0,1,1.22-.878L13.559,9.1c-.532.366-1.058.752-1.564,1.158Z" transform="translate(11.719 8.952)" fill="#c79c6b"/><path d="M14.884,16.846c.3-.393.62-.772.944-1.138l-5.015-4.338c-.431.486-.842.978-1.24,1.49Z" transform="translate(9.335 11.186)" fill="#c79c6b"/><path d="M13.99,18.516c.2-.452.411-.892.634-1.331L8.658,14.191c-.3.566-.573,1.151-.836,1.743Z" transform="translate(7.614 13.96)" fill="#c79c6b"/><path d="M10.622,11.577l5.089,4.3c.337-.333.674-.665,1.045-.965l.04-.04L12.037,10.22C11.552,10.659,11.087,11.111,10.622,11.577Z" transform="translate(10.368 10.054)" fill="#c79c6b"/><path d="M13.677,19.4c.135-.466.283-.938.451-1.391L7.861,15.757c-.222.605-.418,1.218-.6,1.843Z" transform="translate(7.061 15.501)" fill="#c79c6b"/><path d="M14.383,17.662c.25-.426.512-.838.789-1.244l-5.52-3.7c-.364.532-.708,1.078-1.038,1.637Z" transform="translate(8.392 12.512)" fill="#c79c6b"/><path d="M21.4,13.231a12.041,12.041,0,0,1,1.476.14l.856-6.527c-.674-.086-1.287-.146-1.948-.186Z" transform="translate(20.967 6.549)" fill="#c79c6b"/><path d="M31.031,18.476c.135.473.256.945.357,1.424l6.531-1.331c-.135-.632-.3-1.257-.478-1.87Z" transform="translate(30.445 16.428)" fill="#c79c6b" opacity="0.6"/><path d="M30.593,17.648c.2.446.371.9.532,1.371l6.309-2.142c-.216-.612-.445-1.218-.674-1.8Z" transform="translate(30.014 14.828)" fill="#c79c6b" opacity="0.6"/><path d="M29.989,16.837a11.779,11.779,0,0,1,.674,1.291l6.066-2.868c-.29-.579-.6-1.144-.93-1.7Z" transform="translate(29.42 13.337)" fill="#c79c6b" opacity="0.7"/><path d="M13.48,20.3c.074-.486.175-.965.283-1.437l-6.5-1.471c-.148.625-.276,1.258-.377,1.9Z" transform="translate(6.694 17.111)" fill="#c79c6b"/><path d="M37.911,18.354l-6.6,1.011c.081.479.135.971.175,1.457l6.646-.546C38.08,19.631,38.005,18.986,37.911,18.354Z" transform="translate(30.722 18.055)" fill="#c79c6b" opacity="0.5"/><path d="M29.274,16.1c.3.392.586.792.856,1.2l5.581-3.6c-.357-.539-.728-1.071-1.126-1.584Z" transform="translate(28.717 11.925)" fill="#c79c6b" opacity="0.7"/><path d="M31.443,20.925v.812l6.666.246V20.054l-6.659.206C31.436,20.486,31.443,20.706,31.443,20.925Z" transform="translate(30.848 19.728)" fill="#c79c6b" opacity="0.5"/><path d="M26.363,14.286c.425.259.836.532,1.24.818l3.9-5.323c-.532-.379-1.072-.739-1.624-1.078Z" transform="translate(25.853 8.562)" fill="#c79c6b" opacity="0.8"/><path d="M25.205,13.87c.451.2.9.419,1.348.665l3.2-5.775C29.182,8.448,28.6,8.168,28,7.9Z" transform="translate(24.714 7.767)" fill="#c79c6b" opacity="0.9"/><path d="M28.415,15.421c.344.346.674.712,1,1.085l5.1-4.252A19.141,19.141,0,0,0,33.16,10.83Z" transform="translate(27.871 10.654)" fill="#c79c6b" opacity="0.8"/><path d="M23.978,13.559c.472.146.937.319,1.4.492l2.44-6.121c-.606-.233-1.213-.452-1.84-.665Z" transform="translate(23.506 7.147)" fill="#c79c6b" opacity="0.9"/><path d="M22.7,13.343c.492.086.977.186,1.456.306l1.665-6.374c-.627-.16-1.267-.293-1.914-.413Z" transform="translate(22.25 6.751)" fill="#c79c6b" opacity="0.9"/><path d="M31.613,9.679,27.44,14.816c.384.306.762.625,1.126.958L33.1,10.937C32.617,10.5,32.125,10.085,31.613,9.679Z" transform="translate(26.913 9.522)" fill="#c79c6b" opacity="0.8"/><path d="M13.475,22.189c-.047-.486-.067-.978-.081-1.471l-6.666.133c0,.665.047,1.291.108,1.93Z" transform="translate(6.537 20.381)" fill="#c79c6b" opacity="0.9"/><path d="M26.482,29.787c-.438.226-.883.439-1.348.665l2.737,5.988c.593-.266,1.186-.546,1.759-.852Z" transform="translate(24.643 29.302)" fill="#c79c6b" opacity="0.2"/><path d="M27.546,29.1c-.4.286-.816.559-1.24.812l3.464,5.622A17.975,17.975,0,0,0,31.4,34.469Z" transform="translate(25.796 28.626)" fill="#c79c6b" opacity="0.2"/><path d="M28.513,28.288a13.764,13.764,0,0,1-1.139.945l4.145,5.157c.506-.4,1.011-.805,1.49-1.244Z" transform="translate(26.847 27.828)" fill="#c79c6b" opacity="0.2"/><path d="M34.436,31.631l-5.069-4.278c-.323.373-.674.732-1,1.078l4.718,4.657A17.808,17.808,0,0,0,34.436,31.631Z" transform="translate(27.82 26.907)" fill="#c79c6b" opacity="0.2"/><path d="M24.081,30.719c-.478.12-.964.22-1.449.306l1.159,6.48c.674-.113,1.281-.239,1.914-.4Z" transform="translate(22.182 30.22)" fill="#c79c6b" opacity="0.3"/><path d="M25.311,30.328c-.458.173-.93.339-1.4.486l1.948,6.294c.627-.193,1.24-.412,1.847-.665Z" transform="translate(23.439 29.834)" fill="#c79c6b" opacity="0.2"/><path d="M31.485,21.46c-.04.486-.108.971-.182,1.451l6.585,1.058q.155-.952.243-1.916Z" transform="translate(30.712 21.11)" fill="#c79c6b" opacity="0.4"/><path d="M30.092,26.316c-.27.406-.559.8-.863,1.191L34.514,31.5c.4-.506.782-1.031,1.139-1.564Z" transform="translate(28.673 25.888)" fill="#c79c6b" opacity="0.2"/><path d="M22.807,30.955c-.492.06-.984.113-1.483.133l.337,6.58c.674-.033,1.3-.1,1.948-.18Z" transform="translate(20.896 30.451)" fill="#c79c6b" opacity="0.3"/><path d="M31.382,22.744c-.108.486-.229.958-.371,1.424l6.4,1.85c.182-.619.344-1.237.485-1.876Z" transform="translate(30.426 22.374)" fill="#c79c6b" opacity="0.4"/><path d="M31.106,23.995a14.119,14.119,0,0,1-.539,1.331l6.12,2.615c.256-.585.492-1.184.715-1.8Z" transform="translate(29.988 23.604)" fill="#c79c6b" opacity="0.3"/><path d="M30.663,25.189c-.222.439-.458.871-.674,1.291l5.743,3.327a17.431,17.431,0,0,0,.937-1.7Z" transform="translate(29.42 24.779)" fill="#c79c6b" opacity="0.3"/><path d="M15.779,27.91c-.324-.373-.634-.752-.93-1.144L9.49,30.684c.384.519.8,1.018,1.22,1.5Z" transform="translate(9.254 26.33)" fill="#c79c6b" opacity="0.7"/><path d="M14.559,25.842c-.222-.439-.425-.885-.613-1.331L7.778,27.02q.377.9.809,1.756Z" transform="translate(7.57 24.113)" fill="#c79c6b" opacity="0.8"/><path d="M15.113,26.926c-.27-.406-.532-.825-.775-1.251l-5.8,3.24c.324.559.674,1.111,1.018,1.643Z" transform="translate(8.315 25.257)" fill="#c79c6b" opacity="0.8"/><path d="M12,33.646l4.5-4.857c-.371-.333-.721-.665-1.058-1.031L10.591,32.3A19.193,19.193,0,0,0,12,33.646Z" transform="translate(10.337 27.306)" fill="#c79c6b" opacity="0.7"/><path d="M13.4,21.214a13.348,13.348,0,0,1,.094-1.471l-6.639-.665c-.067.665-.1,1.278-.121,1.93Z" transform="translate(6.541 18.768)" fill="#c79c6b" opacity="0.9"/><path d="M14.092,24.678c-.168-.459-.31-.925-.445-1.4l-6.423,1.71c.169.625.364,1.237.58,1.843Z" transform="translate(7.025 22.902)" fill="#c79c6b" opacity="0.8"/><path d="M13.712,23.453c-.1-.473-.189-.952-.263-1.444l-6.565.938c.094.665.209,1.277.344,1.9Z" transform="translate(6.69 21.651)" fill="#c79c6b" opacity="0.9"/><path d="M19.87,30.918c-.485-.12-.957-.259-1.429-.406L16.4,36.766c.62.2,1.24.379,1.881.539Z" transform="translate(16.05 30.016)" fill="#c79c6b" opacity="0.5"/><path d="M21.719,31.068a12.386,12.386,0,0,1-1.49-.06l-.458,6.567c.674.047,1.294.073,1.948.073Z" transform="translate(19.367 30.504)" fill="#c79c6b" opacity="0.4"/><path d="M17.274,29.535c-.4-.286-.8-.579-1.186-.891l-4.233,5.09c.5.406,1.024.792,1.557,1.164Z" transform="translate(11.58 28.178)" fill="#c79c6b" opacity="0.6"/><path d="M20.815,31.067c-.492-.06-.984-.133-1.463-.226L18.071,37.3c.634.12,1.281.219,1.934.3Z" transform="translate(17.696 30.339)" fill="#c79c6b" opacity="0.4"/><path d="M18.977,30.6c-.465-.173-.923-.366-1.348-.572L14.784,36.02c.586.273,1.186.525,1.793.758Z" transform="translate(14.462 29.544)" fill="#c79c6b" opacity="0.5"/><path d="M18.121,30.15c-.438-.233-.863-.486-1.281-.745l-3.566,5.562c.546.339,1.105.665,1.685.978Z" transform="translate(12.977 28.927)" fill="#c79c6b" opacity="0.6"/></g></svg>